<svg width="512" height="512" viewBox="0 0 512 512" xmlns="http://www.w3.org/2000/svg" role="img" aria-label="IRON FITNESS GYM logo">
  <defs>
    <linearGradient id="yellow" x1="0" y1="0" x2="0" y2="1">
      <stop offset="0%" stop-color="#fde047"/>
      <stop offset="100%" stop-color="#eab308"/>
    </linearGradient>
  </defs>

  <circle cx="256" cy="256" r="245" fill="#090909"/>

  <text x="256" y="208" text-anchor="middle" fill="url(#yellow)" font-size="126" font-weight="900" font-family="Orbitron, Arial Black, sans-serif" letter-spacing="2">
    IRON
  </text>
  <text x="256" y="287" text-anchor="middle" fill="url(#yellow)" font-size="58" font-weight="900" font-family="Orbitron, Arial Black, sans-serif" letter-spacing="2">
    FITNESS
  </text>
  <text x="256" y="352" text-anchor="middle" fill="url(#yellow)" font-size="76" font-weight="900" font-family="Orbitron, Arial Black, sans-serif" letter-spacing="2">
    GYM
  </text>

  <path d="M86 290c22-50 64-70 112-57 13 3 19 10 20 22 0 17-9 25-28 27-18 1-31 8-39 22-8 13-19 21-34 24-11 2-22-1-31-8z" fill="#facc15"/>
  <path d="M315 155c14 0 25 9 25 20 0 7-4 13-10 17 11 8 18 20 18 35 0 26-20 47-45 47-26 0-46-21-46-47 0-23 16-42 37-46-3-3-5-7-5-11 0-8 8-15 18-15 9 0 17 7 17 15 0 4-2 8-5 11 1 0 3 0 4 0z" fill="#0c0c0c"/>
</svg>
